<svg id="Capa_1" data-name="Capa 1" xmlns="http://www.w3.org/2000/svg" viewBox="0 0 92.35 45.47"><defs><style>.cls-1,.cls-3{isolation:isolate;}.cls-2{fill:#5896d1;}.cls-3{opacity:0.8;}.cls-4{fill:#1d1d1b;}</style></defs><g class="cls-1"><g class="cls-1"><path class="cls-2" d="M19.36,31.13a13.61,13.61,0,0,0-4,1.16,25.88,25.88,0,0,0-4.43,2.47A16.2,16.2,0,0,0,7.4,37.84,12.94,12.94,0,0,0,5.61,40.7a6.06,6.06,0,0,0-.49,3.91,3.13,3.13,0,0,0,1.65,2.25,6,6,0,0,0,3.38.06A14,14,0,0,0,15,44.71a29.13,29.13,0,0,0,3.08-2.36c.95-.84,1.82-1.67,2.61-2.47s1.48-1.57,2.09-2.29,1.12-1.34,1.57-1.89l1,.76c-1,1.54-2.14,3.09-3.35,4.65a36.5,36.5,0,0,1-3.91,4.29,22.13,22.13,0,0,1-4.48,3.27,14,14,0,0,1-5.09,1.66,9.14,9.14,0,0,1-3.82-.25,5.82,5.82,0,0,1-2.84-1.74A6.26,6.26,0,0,1,.5,44.85a8.52,8.52,0,0,1,.88-4.48A14.25,14.25,0,0,1,3.69,37a21.09,21.09,0,0,1,3.19-2.91,29.18,29.18,0,0,1,3.71-2.37A25.85,25.85,0,0,1,14.52,30l.06-.16a8.33,8.33,0,0,1-1.77-1.32,6.08,6.08,0,0,1-1.75-3.6,6.87,6.87,0,0,1,1.21-4.54,10,10,0,0,1,2-2.42,17.91,17.91,0,0,1,2.63-2,20.22,20.22,0,0,1,3.83-1.79,13.86,13.86,0,0,1,3.82-.77,7.63,7.63,0,0,1,3.24.5,3.88,3.88,0,0,1,2.1,1.9,4.69,4.69,0,0,1,.46,1.48,5.14,5.14,0,0,1-.08,1.9,6.82,6.82,0,0,1-.91,2.12,10.38,10.38,0,0,1-1.95,2.2,12,12,0,0,1-2.91,1.78,10.17,10.17,0,0,1-3.06.83,5.22,5.22,0,0,1-2.55-.33,2.12,2.12,0,0,1-1.33-1.68,17,17,0,0,0,4-1,13.14,13.14,0,0,0,3.36-1.84,10.94,10.94,0,0,0,2.81-2.86q.93-1.49.54-2.25a1.44,1.44,0,0,0-1.37-.64,7.88,7.88,0,0,0-2.47.41,18.27,18.27,0,0,0-3.06,1.3,27,27,0,0,0-3.1,1.9,20,20,0,0,0-2.42,2,8.66,8.66,0,0,0-1.68,2.17,4.3,4.3,0,0,0-.55,2.15,2.74,2.74,0,0,0,1,1.93,3.92,3.92,0,0,0,1.27.82,7.74,7.74,0,0,0,1.67.5,14.14,14.14,0,0,0,1.85.19,10.82,10.82,0,0,0,1.81-.09Z" transform="translate(-0.46 -13.38)"/><path class="cls-2" d="M43,36.41c-.44.73-1,1.67-1.79,2.8a36.71,36.71,0,0,1-2.47,3.33,19.78,19.78,0,0,1-2.84,2.81A5,5,0,0,1,33,46.59a3.89,3.89,0,0,1-2.89-1,8.51,8.51,0,0,1-1.84-2.67c0-.07-.07-.16-.11-.25s-.07-.17-.11-.24a33.84,33.84,0,0,0-2.23,3.13c-.64,1-1.24,2-1.79,3-.07.26-.18.4-.33.44a.43.43,0,0,1-.41-.11,1.47,1.47,0,0,1-.36-.52,1.76,1.76,0,0,1-.16-.74A1.74,1.74,0,0,1,23,46.31a26.64,26.64,0,0,1,2-2.83c.79-1,1.64-2,2.55-3.11a16.92,16.92,0,0,1-.35-3.24,31.23,31.23,0,0,1,.13-3.47l-2.42,3.63-1.15-.71c.55-.85,1.1-1.73,1.65-2.65.48-.76,1-1.6,1.46-2.5s.94-1.75,1.34-2.55a3.86,3.86,0,0,1,.33-1.1,2.08,2.08,0,0,1,1.35-1.24,3.71,3.71,0,0,1,2.12-.2,21.1,21.1,0,0,0-1.71,11c1-1.06,2-2.12,2.95-3.18s1.86-2.06,2.66-3,1.49-1.72,2-2.42a8.69,8.69,0,0,0,1.1-1.64q0-.12.27,0a1.7,1.7,0,0,1,.83,1,1.55,1.55,0,0,1-.22,1.46,16.12,16.12,0,0,1-1.62,2c-.79.88-1.65,1.79-2.59,2.72L33,37l-2,2-.27.28a7.71,7.71,0,0,0,1.21,2.61,2.65,2.65,0,0,0,1.87,1.13,3.73,3.73,0,0,0,2.36-.66,12,12,0,0,0,2.29-1.93,22.9,22.9,0,0,0,2-2.48c.6-.87,1.11-1.64,1.51-2.3Z" transform="translate(-0.46 -13.38)"/><path class="cls-2" d="M50,27.72a.16.16,0,0,1-.13.06.31.31,0,0,0-.2.1,14.47,14.47,0,0,0-2.39,3A44.89,44.89,0,0,0,45,35.14h.11c.66-.88,1.35-1.73,2.06-2.55s1.42-1.6,2.12-2.31a26.52,26.52,0,0,1,2-1.9,13.26,13.26,0,0,1,1.78-1.32,5.85,5.85,0,0,1,.86-.44,3.43,3.43,0,0,1,.85-.22,2.41,2.41,0,0,1,1.07,0,2.18,2.18,0,0,1,.85.41,3,3,0,0,1,1,2.31,12.75,12.75,0,0,1-.82,5.09,28.73,28.73,0,0,1-2.59,5.47l-.05,0A2.64,2.64,0,0,1,53.9,42c-.11-.18-.2-.35-.28-.49a2.27,2.27,0,0,0-.27-.44,21.77,21.77,0,0,1-2.7,3.27,9.45,9.45,0,0,1-2.69,2,4.28,4.28,0,0,1-1.46.39,2.65,2.65,0,0,1-1.35-.25,2.59,2.59,0,0,1-1-.94,2.87,2.87,0,0,1-.42-1.62A4.54,4.54,0,0,1,44,42.05a5.61,5.61,0,0,1,1.07-1.79l0-.11a7.09,7.09,0,0,1,1.6-1.46,6.8,6.8,0,0,1,1.79-.85,7,7,0,0,1,1.76-.3,4.23,4.23,0,0,1,1.51.19,29.09,29.09,0,0,0,2.06-3.88,12.28,12.28,0,0,0,1-3.32,2,2,0,0,0-.17-1.44.79.79,0,0,0-1-.33,4.93,4.93,0,0,0-1.54.91,18,18,0,0,0-1.79,1.68c-.63.66-1.2,1.29-1.73,1.9s-1,1.15-1.38,1.65a10.5,10.5,0,0,1-.74.9c-.7,1-1.38,2-2,3s-1.27,2-1.84,3-1.07,1.9-1.51,2.78a18.11,18.11,0,0,0-1,2.31c-.33,1.06-.65,2.2-1,3.41s-.56,2.37-.75,3.49a26.78,26.78,0,0,0-.33,3,4.7,4.7,0,0,0,.28,2.06l-1.21-.39-1-1.15a3.31,3.31,0,0,1-.77-2.81A18.15,18.15,0,0,1,36.08,51q.6-2.25,1.57-5t2.17-5.66c.81-2,1.62-3.82,2.45-5.58s1.63-3.34,2.42-4.73A18.29,18.29,0,0,1,46.75,27,1.69,1.69,0,0,1,48,26.32a2.06,2.06,0,0,1,1.15.25,2.28,2.28,0,0,1,.77.65C50.07,27.48,50.1,27.65,50,27.72Zm-2.2,12.37a4.64,4.64,0,0,0-1.48,1.38,2.08,2.08,0,0,0-.41,1.16c0,.29.19.45.52.49a2.1,2.1,0,0,0,1.32-.55,15.05,15.05,0,0,0,2.91-3.14A5.8,5.8,0,0,0,47.79,40.09Z" transform="translate(-0.46 -13.38)"/></g><g class="cls-3"><path class="cls-4" d="M58.25,46.75l4.42-13.09h3.58l4.42,13.09H67.29l-.82-2.67H62.36l-.82,2.67Zm7.5-5-1.33-4.32-1.34,4.32Z" transform="translate(-0.46 -13.38)"/><path class="cls-4" d="M81.48,41.68a5.78,5.78,0,0,1-1.2,3.81,3.7,3.7,0,0,1-3,1.45A4.43,4.43,0,0,1,76,46.78a5.79,5.79,0,0,1-1.16-.52v4.11H71.8V36.88h3.08v1A6.89,6.89,0,0,1,76.26,37a3.48,3.48,0,0,1,1.62-.36A3,3,0,0,1,80.54,38,6.49,6.49,0,0,1,81.48,41.68Zm-3.15.06a3.85,3.85,0,0,0-.44-2.09A1.55,1.55,0,0,0,76.5,39a2.6,2.6,0,0,0-.82.13,3.15,3.15,0,0,0-.8.4v5a2.13,2.13,0,0,0,.54.15,4.72,4.72,0,0,0,.7,0A2,2,0,0,0,77.79,44,3.73,3.73,0,0,0,78.33,41.74Z" transform="translate(-0.46 -13.38)"/><path class="cls-4" d="M92.81,41.68a5.78,5.78,0,0,1-1.2,3.81,3.7,3.7,0,0,1-3,1.45,4.43,4.43,0,0,1-1.28-.16,5.79,5.79,0,0,1-1.16-.52v4.11H83.13V36.88h3.08v1A7.13,7.13,0,0,1,87.58,37a3.56,3.56,0,0,1,1.63-.36A3,3,0,0,1,91.87,38,6.49,6.49,0,0,1,92.81,41.68Zm-3.15.06a3.85,3.85,0,0,0-.44-2.09A1.55,1.55,0,0,0,87.83,39a2.6,2.6,0,0,0-.82.13,3.15,3.15,0,0,0-.8.4v5a2.13,2.13,0,0,0,.54.15,4.58,4.58,0,0,0,.69,0A1.94,1.94,0,0,0,89.11,44,3.66,3.66,0,0,0,89.66,41.74Z" transform="translate(-0.46 -13.38)"/></g></g></svg>